<?xml version="1.0" standalone="no"?>
<!DOCTYPE svg PUBLIC "-//W3C//DTD SVG 20010904//EN"
 "http://www.w3.org/TR/2001/REC-SVG-20010904/DTD/svg10.dtd">
<svg version="1.0" xmlns="http://www.w3.org/2000/svg"
 width="240.000000pt" height="240.000000pt" viewBox="0 0 240.000000 240.000000"
 preserveAspectRatio="xMidYMid meet">
<metadata>
Created by potrace 1.11, written by Peter Selinger 2001-2013
</metadata>
<g transform="translate(0.000000,240.000000) scale(0.100000,-0.100000)"
fill="#000000" stroke="none">
<path d="M370 2185 c0 -18 -7 -26 -25 -31 -38 -10 -30 -80 11 -90 21 -5 23
-12 26 -72 4 -87 23 -83 23 4 0 63 1 65 23 61 32 -6 54 19 51 57 -4 43 -15 54
-49 51 -25 -2 -31 2 -36 21 -8 31 -24 31 -24 -1z m80 -70 c0 -20 -5 -25 -25
-25 -20 0 -25 5 -25 25 0 20 5 25 25 25 20 0 25 -5 25 -25z m-73 -5 c1 -11 -4
-20 -11 -20 -8 0 -16 9 -19 20 -4 14 0 20 12 20 10 0 17 -8 18 -20z"/>
<path d="M693 2198 c-6 -7 -13 -22 -17 -33 -5 -15 -9 -16 -15 -6 -6 9 -23 12
-56 9 -51 -6 -69 -22 -54 -49 5 -10 9 -26 9 -37 0 -11 9 -26 20 -33 13 -10 21
-28 23 -57 2 -23 9 -48 15 -54 9 -9 12 2 12 49 0 45 4 62 15 67 8 3 16 16 16
28 1 20 2 21 6 3 7 -27 33 -44 68 -45 43 -1 59 -13 51 -41 -11 -42 -23 -54
-39 -40 -16 13 -30 2 -19 -15 24 -36 75 -10 87 45 10 45 -2 69 -37 76 -26 6
-28 9 -15 17 20 10 23 58 5 76 -7 7 -23 12 -35 12 -21 0 -22 3 -13 20 8 16 8
20 -3 20 -8 0 -19 -6 -24 -12z m57 -76 c-1 -24 -27 -55 -39 -47 -17 10 -13 22
12 30 19 6 19 8 5 12 -21 5 -24 19 -5 26 17 6 27 -1 27 -21z m-152 6 c-2 -6
-10 -14 -16 -16 -7 -2 -10 2 -6 12 7 18 28 22 22 4z m42 -5 c0 -10 -4 -14 -8
-8 -4 6 -11 13 -16 18 -5 4 -2 7 7 7 10 0 17 -8 17 -17z"/>
<path d="M246 2143 c-8 -9 14 -33 30 -33 8 0 14 4 14 10 0 12 -35 31 -44 23z"/>
<path d="M937 2103 c-31 -8 -15 -36 23 -39 19 -1 50 -6 68 -9 20 -5 38 -3 46
5 23 18 9 35 -32 36 -20 1 -48 4 -62 7 -14 3 -33 3 -43 0z"/>
<path d="M1796 2020 c9 -109 2 -123 -37 -74 -29 37 -131 114 -150 114 -5 0 -7
-12 -4 -27 18 -89 18 -91 -10 -118 -24 -25 -32 -27 -73 -21 -253 34 -375 1
-517 -139 -252 -250 -317 -370 -279 -517 14 -57 43 -105 101 -170 38 -43 49
-69 41 -95 -1 -5 -39 -20 -83 -36 -44 -15 -154 -63 -245 -107 -91 -44 -187
-85 -215 -91 -27 -7 -67 -16 -88 -21 -40 -10 -81 -42 -75 -60 2 -6 25 -16 51
-23 54 -14 83 -36 91 -72 9 -35 52 -100 74 -112 10 -5 47 -9 83 -9 126 1 232
-46 332 -148 l65 -67 94 -2 c55 0 102 -6 116 -14 28 -15 52 -67 52 -111 0 -37
12 -39 30 -3 8 16 19 35 26 43 37 48 58 189 40 271 l-8 36 49 8 c26 4 121 8
210 10 183 4 226 13 248 56 14 27 14 30 -5 46 -11 10 -30 21 -43 25 -16 4 -9
7 23 8 25 1 54 3 65 5 11 2 35 7 54 10 90 17 198 85 261 165 70 88 153 355
152 490 0 135 -30 216 -107 296 -29 30 -45 55 -46 72 0 15 -2 35 -4 44 -2 9
-6 35 -9 56 -18 135 -103 272 -208 338 -58 37 -60 34 -52 -56z"/>
<path d="M253 2048 c-13 -6 -23 -15 -23 -20 0 -16 37 -8 55 12 21 23 6 26 -32
8z"/>
<path d="M670 2000 c-20 -6 -22 -9 -9 -14 25 -11 92 -3 97 12 4 14 -46 15 -88
2z"/>
<path d="M110 1121 c-8 -14 -11 -14 -20 -1 -9 13 -10 13 -11 0 -1 -8 -1 -18 0
-22 0 -5 -6 -8 -14 -8 -8 0 -15 -7 -15 -16 0 -8 -4 -13 -8 -10 -4 2 -7 -8 -6
-22 1 -15 3 -27 4 -27 1 0 4 -13 6 -28 9 -51 49 -85 117 -97 30 -6 37 -4 38 9
0 12 2 11 9 -4 5 -11 9 -14 9 -7 1 6 9 12 19 12 21 0 52 30 52 49 0 7 5 9 10
6 13 -8 13 1 -1 27 -8 15 -8 19 0 14 15 -10 9 20 -13 67 -21 42 -66 68 -126
72 -29 2 -43 -2 -50 -14z"/>
<path d="M1904 505 c-4 -9 -13 -14 -20 -11 -8 3 -14 -1 -14 -9 0 -7 -5 -17
-12 -21 -7 -5 -8 -3 -3 5 5 10 2 9 -13 0 -12 -7 -19 -16 -16 -20 2 -4 0 -9 -6
-11 -5 -1 -11 -12 -13 -23 -1 -11 -6 -26 -10 -32 -5 -7 -5 -13 0 -13 4 0 9
-10 9 -22 3 -44 11 -59 40 -85 36 -31 64 -42 98 -39 14 2 26 -2 26 -8 0 -6 4
-5 9 3 5 7 14 10 20 7 6 -4 11 -2 11 4 0 6 4 9 9 5 5 -3 16 1 24 9 8 8 17 13
20 10 3 -3 8 4 12 15 3 12 10 19 15 16 8 -5 26 72 21 90 -2 6 -3 20 -3 33 0
12 -4 22 -9 22 -5 0 -9 6 -9 14 0 23 -71 61 -116 62 -23 1 -47 4 -53 8 -6 4
-14 0 -17 -9z"/>
<path d="M0 147 l0 -143 27 -2 c14 -1 37 5 51 14 13 9 21 11 18 5 -5 -7 -1 -9
9 -5 12 5 13 9 4 21 -10 11 -9 13 2 11 8 -2 17 -7 21 -13 4 -6 8 -2 8 8 0 29
1 31 15 47 17 19 14 63 -8 113 -11 25 -21 36 -28 31 -8 -4 -9 -3 -5 4 7 12
-47 45 -58 35 -3 -4 -6 -2 -6 3 0 5 -11 11 -25 12 l-25 2 0 -143z"/>
</g>
</svg>
